<?xml version="1.0" encoding="UTF-8"?>
<svg xmlns="http://www.w3.org/2000/svg" width="960" height="420" viewBox="0 0 960 420">
  <rect width="100%" height="100%" fill="#f7f9fc" />
  <text x="88" y="24" font-size="20" font-family="Arial, sans-serif" font-weight="700" fill="#18212f">ADVANC cumulative NVDR NET (2026-03-01 to 2026-04-21)</text>
  <text x="88" y="46" font-size="12" font-family="Arial, sans-serif" fill="#445166">Unit: million baht, based on NVDR Turnover (Net) from value view</text>
  
      <line x1="88" y1="36.0" x2="936" y2="36.0" stroke="#d8dde6" stroke-width="1" />
      <text x="78" y="40.0" text-anchor="end" font-size="12" fill="#445166">100.65</text>
    
      <line x1="88" y1="101.6" x2="936" y2="101.6" stroke="#d8dde6" stroke-width="1" />
      <text x="78" y="105.6" text-anchor="end" font-size="12" fill="#445166">-1179.21</text>
    
      <line x1="88" y1="167.2" x2="936" y2="167.2" stroke="#d8dde6" stroke-width="1" />
      <text x="78" y="171.2" text-anchor="end" font-size="12" fill="#445166">-2459.07</text>
    
      <line x1="88" y1="232.8" x2="936" y2="232.8" stroke="#d8dde6" stroke-width="1" />
      <text x="78" y="236.8" text-anchor="end" font-size="12" fill="#445166">-3738.94</text>
    
      <line x1="88" y1="298.4" x2="936" y2="298.4" stroke="#d8dde6" stroke-width="1" />
      <text x="78" y="302.4" text-anchor="end" font-size="12" fill="#445166">-5018.80</text>
    
      <line x1="88" y1="364.0" x2="936" y2="364.0" stroke="#d8dde6" stroke-width="1" />
      <text x="78" y="368.0" text-anchor="end" font-size="12" fill="#445166">-6298.66</text>
    
  <line x1="88" y1="41.2" x2="936" y2="41.2" stroke="#7a8799" stroke-width="1.4" stroke-dasharray="4 4" />
  <line x1="88" y1="36" x2="88" y2="364" stroke="#445166" stroke-width="1.2" />
  <line x1="88" y1="364" x2="936" y2="364" stroke="#445166" stroke-width="1.2" />
  
      <line x1="88.0" y1="364" x2="88.0" y2="370" stroke="#445166" stroke-width="1" />
      <text x="88.0" y="386" text-anchor="middle" font-size="12" fill="#445166">2026-03-05</text>
    
      <line x1="497.4" y1="364" x2="497.4" y2="370" stroke="#445166" stroke-width="1" />
      <text x="497.4" y="386" text-anchor="middle" font-size="12" fill="#445166">2026-03-25</text>
    
      <line x1="936.0" y1="364" x2="936.0" y2="370" stroke="#445166" stroke-width="1" />
      <text x="936.0" y="386" text-anchor="middle" font-size="12" fill="#445166">2026-04-21</text>
    
  <polyline fill="none" stroke="#0b84f3" stroke-width="3" points="88.0,36.0 117.2,59.4 146.5,52.6 175.7,77.7 205.0,95.3 234.2,87.5 263.4,99.9 292.7,94.3 321.9,103.9 351.2,119.4 380.4,137.8 409.7,169.6 438.9,197.6 468.1,231.4 497.4,235.7 526.6,249.8 555.9,250.2 585.1,245.8 614.3,243.0 643.6,295.9 672.8,297.8 702.1,288.8 731.3,288.4 760.6,288.3 789.8,278.6 819.0,283.1 848.3,298.5 877.5,364.0 906.8,352.2 936.0,354.7" />
  <circle cx="936.0" cy="354.7" r="4.5" fill="#0b84f3" />
  <text x="932.0" y="344.7" font-size="12" fill="#18212f">-6117.37</text>
</svg>
