<?xml version="1.0" encoding="UTF-8"?>
<svg xmlns="http://www.w3.org/2000/svg" width="1080" height="520" viewBox="0 0 1080 520">
  <rect width="100%" height="100%" fill="#f7f9fc" />
  <text x="96" y="26" font-size="20" font-family="Arial, sans-serif" font-weight="700" fill="#18212f">All sectors comparison chart</text>
  <text x="96" y="48" font-size="12" font-family="Arial, sans-serif" fill="#445166">Cumulative NVDR NET by sector | 2026-03-01 to 2026-04-21</text>
  
      <line x1="96" y1="54.0" x2="890" y2="54.0" stroke="#d8dde6" stroke-width="1" />
      <text x="86" y="58.0" text-anchor="end" font-size="12" fill="#445166">10,331.62</text>
    
      <line x1="96" y1="136.0" x2="890" y2="136.0" stroke="#d8dde6" stroke-width="1" />
      <text x="86" y="140.0" text-anchor="end" font-size="12" fill="#445166">6,258.77</text>
    
      <line x1="96" y1="218.0" x2="890" y2="218.0" stroke="#d8dde6" stroke-width="1" />
      <text x="86" y="222.0" text-anchor="end" font-size="12" fill="#445166">2,185.92</text>
    
      <line x1="96" y1="300.0" x2="890" y2="300.0" stroke="#d8dde6" stroke-width="1" />
      <text x="86" y="304.0" text-anchor="end" font-size="12" fill="#445166">-1,886.94</text>
    
      <line x1="96" y1="382.0" x2="890" y2="382.0" stroke="#d8dde6" stroke-width="1" />
      <text x="86" y="386.0" text-anchor="end" font-size="12" fill="#445166">-5,959.79</text>
    
      <line x1="96" y1="464.0" x2="890" y2="464.0" stroke="#d8dde6" stroke-width="1" />
      <text x="86" y="468.0" text-anchor="end" font-size="12" fill="#445166">-10,032.64</text>
    
  <line x1="96" y1="262.0" x2="890" y2="262.0" stroke="#7a8799" stroke-width="1.4" stroke-dasharray="4 4" />
  <line x1="96" y1="54" x2="96" y2="464" stroke="#445166" stroke-width="1.2" />
  <line x1="96" y1="464" x2="890" y2="464" stroke="#445166" stroke-width="1.2" />
  
      <line x1="96.0" y1="464" x2="96.0" y2="470" stroke="#445166" stroke-width="1" />
      <text x="96.0" y="486" text-anchor="middle" font-size="12" fill="#445166">2026-03-05</text>
    
      <line x1="479.3" y1="464" x2="479.3" y2="470" stroke="#445166" stroke-width="1" />
      <text x="479.3" y="486" text-anchor="middle" font-size="12" fill="#445166">2026-03-25</text>
    
      <line x1="890.0" y1="464" x2="890.0" y2="470" stroke="#445166" stroke-width="1" />
      <text x="890.0" y="486" text-anchor="middle" font-size="12" fill="#445166">2026-04-21</text>
    
  <polyline fill="none" stroke="#0b84f3" stroke-width="2.2" points="96.0,260.2 123.4,271.9 150.8,291.0 178.1,310.9 205.5,303.7 232.9,295.9 260.3,285.9 287.7,312.7 315.0,292.9 342.4,306.3 369.8,281.8 397.2,277.5 424.6,274.1 451.9,273.7 479.3,258.2 506.7,223.1 534.1,188.0 561.4,193.0 588.8,195.4 616.2,185.6 643.6,168.7 671.0,184.0 698.3,153.8 725.7,138.0 753.1,118.1 780.5,114.0 807.9,100.5 835.2,73.5 862.6,54.5 890.0,54.0" /><circle cx="890.0" cy="54.0" r="3.5" fill="#0b84f3" /><polyline fill="none" stroke="#f39c12" stroke-width="2.2" points="96.0,265.7 123.4,266.0 150.8,266.5 178.1,270.0 205.5,272.0 232.9,274.5 260.3,276.3 287.7,276.5 315.0,271.2 342.4,274.1 369.8,276.2 397.2,276.1 424.6,277.2 451.9,278.6 479.3,273.8 506.7,274.0 534.1,273.7 561.4,272.4 588.8,275.3 616.2,271.8 643.6,270.8 671.0,268.4 698.3,266.4 725.7,264.3 753.1,265.4 780.5,264.8 807.9,237.7 835.2,231.4 862.6,225.5 890.0,227.2" /><circle cx="890.0" cy="227.2" r="3.5" fill="#f39c12" /><polyline fill="none" stroke="#27ae60" stroke-width="2.2" points="96.0,265.8 123.4,262.0 150.8,265.5 178.1,269.9 205.5,270.7 232.9,270.0 260.3,275.7 287.7,274.9 315.0,270.0 342.4,274.7 369.8,278.6 397.2,277.9 424.6,279.8 451.9,279.5 479.3,269.1 506.7,269.8 534.1,264.1 561.4,257.3 588.8,252.6 616.2,236.1 643.6,237.1 671.0,237.2 698.3,230.2 725.7,228.5 753.1,225.5 780.5,228.3 807.9,227.3 835.2,232.5 862.6,237.4 890.0,235.5" /><circle cx="890.0" cy="235.5" r="3.5" fill="#27ae60" /><polyline fill="none" stroke="#c0392b" stroke-width="2.2" points="96.0,263.7 123.4,264.0 150.8,264.1 178.1,264.8 205.5,265.8 232.9,265.7 260.3,266.8 287.7,267.2 315.0,265.9 342.4,267.8 369.8,268.7 397.2,268.1 424.6,268.6 451.9,269.0 479.3,269.0 506.7,269.8 534.1,269.6 561.4,268.6 588.8,268.6 616.2,267.5 643.6,267.1 671.0,267.0 698.3,266.8 725.7,266.6 753.1,267.4 780.5,265.5 807.9,265.2 835.2,264.5 862.6,265.0 890.0,264.6" /><circle cx="890.0" cy="264.6" r="3.5" fill="#c0392b" /><polyline fill="none" stroke="#8e44ad" stroke-width="2.2" points="96.0,264.3 123.4,265.3 150.8,266.5 178.1,267.5 205.5,268.2 232.9,268.9 260.3,269.9 287.7,270.2 315.0,271.0 342.4,271.4 369.8,272.1 397.2,272.3 424.6,273.3 451.9,273.3 479.3,273.2 506.7,273.2 534.1,272.4 561.4,272.6 588.8,272.4 616.2,272.3 643.6,272.5 671.0,272.5 698.3,271.8 725.7,271.2 753.1,271.7 780.5,271.6 807.9,271.5 835.2,272.0 862.6,272.1 890.0,271.8" /><circle cx="890.0" cy="271.8" r="3.5" fill="#8e44ad" /><polyline fill="none" stroke="#16a085" stroke-width="2.2" points="96.0,271.3 123.4,273.9 150.8,273.2 178.1,277.1 205.5,282.3 232.9,282.3 260.3,284.2 287.7,283.2 315.0,280.1 342.4,278.8 369.8,284.0 397.2,279.9 424.6,287.4 451.9,291.5 479.3,291.5 506.7,288.9 534.1,283.3 561.4,281.4 588.8,280.1 616.2,279.3 643.6,276.9 671.0,276.5 698.3,272.0 725.7,270.9 753.1,270.4 780.5,268.9 807.9,273.1 835.2,274.2 862.6,272.2 890.0,272.6" /><circle cx="890.0" cy="272.6" r="3.5" fill="#16a085" /><polyline fill="none" stroke="#2c3e50" stroke-width="2.2" points="96.0,264.2 123.4,268.6 150.8,268.6 178.1,275.7 205.5,281.7 232.9,286.9 260.3,291.0 287.7,290.8 315.0,293.3 342.4,293.7 369.8,296.2 397.2,294.5 424.6,294.1 451.9,295.5 479.3,293.6 506.7,291.1 534.1,290.0 561.4,288.9 588.8,288.2 616.2,287.0 643.6,287.9 671.0,287.3 698.3,287.1 725.7,284.7 753.1,289.3 780.5,289.6 807.9,286.0 835.2,286.6 862.6,285.6 890.0,284.5" /><circle cx="890.0" cy="284.5" r="3.5" fill="#2c3e50" /><polyline fill="none" stroke="#d35400" stroke-width="2.2" points="96.0,280.7 123.4,293.8 150.8,301.5 178.1,319.5 205.5,331.4 232.9,340.8 260.3,360.3 287.7,357.4 315.0,353.7 342.4,353.8 369.8,367.1 397.2,377.1 424.6,385.9 451.9,385.8 479.3,339.4 506.7,362.2 534.1,370.3 561.4,384.9 588.8,405.6 616.2,389.0 643.6,379.2 671.0,379.8 698.3,366.7 725.7,362.7 753.1,308.2 780.5,278.2 807.9,294.2 835.2,292.4 862.6,288.2 890.0,284.5" /><circle cx="890.0" cy="284.5" r="3.5" fill="#d35400" /><polyline fill="none" stroke="#7f8c8d" stroke-width="2.2" points="96.0,270.0 123.4,271.7 150.8,270.8 178.1,276.2 205.5,281.0 232.9,287.2 260.3,287.9 287.7,291.1 315.0,298.0 342.4,300.7 369.8,302.6 397.2,306.6 424.6,308.6 451.9,309.2 479.3,310.9 506.7,313.3 534.1,314.6 561.4,314.9 588.8,316.4 616.2,315.4 643.6,314.5 671.0,315.3 698.3,312.2 725.7,309.1 753.1,312.0 780.5,311.9 807.9,308.9 835.2,309.1 862.6,308.5 890.0,310.9" /><circle cx="890.0" cy="310.9" r="3.5" fill="#7f8c8d" /><polyline fill="none" stroke="#e84393" stroke-width="2.2" points="96.0,279.1 123.4,296.7 150.8,297.4 178.1,308.1 205.5,318.2 232.9,327.0 260.3,336.1 287.7,336.0 315.0,337.4 342.4,338.4 369.8,344.9 397.2,344.2 424.6,352.7 451.9,350.3 479.3,345.4 506.7,349.6 534.1,348.7 561.4,352.3 588.8,348.3 616.2,344.9 643.6,343.4 671.0,345.3 698.3,343.7 725.7,340.2 753.1,340.3 780.5,341.3 807.9,334.4 835.2,333.8 862.6,332.7 890.0,333.7" /><circle cx="890.0" cy="333.7" r="3.5" fill="#e84393" /><polyline fill="none" stroke="#6c5ce7" stroke-width="2.2" points="96.0,273.5 123.4,275.6 150.8,273.5 178.1,280.3 205.5,282.7 232.9,289.4 260.3,294.3 287.7,296.9 315.0,300.8 342.4,302.4 369.8,304.5 397.2,308.5 424.6,309.9 451.9,310.5 479.3,318.9 506.7,325.6 534.1,326.4 561.4,323.4 588.8,326.4 616.2,327.5 643.6,331.5 671.0,332.9 698.3,330.5 725.7,326.4 753.1,333.4 780.5,334.6 807.9,335.6 835.2,338.7 862.6,334.8 890.0,336.5" /><circle cx="890.0" cy="336.5" r="3.5" fill="#6c5ce7" /><polyline fill="none" stroke="#00b894" stroke-width="2.2" points="96.0,281.1 123.4,290.2 150.8,292.8 178.1,303.1 205.5,311.2 232.9,313.4 260.3,317.1 287.7,322.6 315.0,323.6 342.4,324.9 369.8,337.3 397.2,339.9 424.6,349.3 451.9,346.5 479.3,350.6 506.7,349.5 534.1,333.4 561.4,326.3 588.8,325.9 616.2,329.6 643.6,332.2 671.0,331.0 698.3,327.5 725.7,323.0 753.1,323.7 780.5,327.4 807.9,333.7 835.2,339.2 862.6,338.1 890.0,341.6" /><circle cx="890.0" cy="341.6" r="3.5" fill="#00b894" /><polyline fill="none" stroke="#0b84f3" stroke-width="2.2" points="96.0,275.7 123.4,276.4 150.8,275.0 178.1,287.4 205.5,296.5 232.9,307.9 260.3,318.6 287.7,320.8 315.0,330.5 342.4,334.6 369.8,341.7 397.2,344.2 424.6,350.9 451.9,354.1 479.3,357.1 506.7,364.5 534.1,360.0 561.4,352.9 588.8,357.5 616.2,353.1 643.6,350.2 671.0,353.2 698.3,353.6 725.7,345.9 753.1,356.4 780.5,358.5 807.9,355.9 835.2,355.1 862.6,356.4 890.0,358.5" /><circle cx="890.0" cy="358.5" r="3.5" fill="#0b84f3" /><polyline fill="none" stroke="#f39c12" stroke-width="2.2" points="96.0,257.4 123.4,300.4 150.8,331.3 178.1,346.3 205.5,358.7 232.9,380.6 260.3,383.0 287.7,420.5 315.0,421.3 342.4,416.5 369.8,417.3 397.2,418.7 424.6,457.7 451.9,417.1 479.3,411.1 506.7,378.8 534.1,381.1 561.4,392.6 588.8,397.2 616.2,373.8 643.6,357.5 671.0,371.7 698.3,382.3 725.7,374.1 753.1,403.6 780.5,412.3 807.9,434.2 835.2,449.5 862.6,455.1 890.0,408.7" /><circle cx="890.0" cy="408.7" r="3.5" fill="#f39c12" /><polyline fill="none" stroke="#27ae60" stroke-width="2.2" points="96.0,279.2 123.4,292.2 150.8,288.6 178.1,307.1 205.5,316.9 232.9,312.5 260.3,323.2 287.7,316.9 315.0,322.7 342.4,333.7 369.8,342.1 397.2,390.7 424.6,405.3 451.9,420.3 479.3,425.0 506.7,435.1 534.1,445.7 561.4,436.6 588.8,425.1 616.2,447.0 643.6,444.6 671.0,439.5 698.3,440.3 725.7,440.0 753.1,425.2 780.5,428.1 807.9,435.5 835.2,464.0 862.6,457.3 890.0,460.1" /><circle cx="890.0" cy="460.1" r="3.5" fill="#27ae60" />
  
      <line x1="900" y1="70" x2="920" y2="70" stroke="#0b84f3" stroke-width="3" />
      <text x="928" y="74" font-size="12" fill="#18212f">Energy</text>
    
      <line x1="900" y1="92" x2="920" y2="92" stroke="#f39c12" stroke-width="3" />
      <text x="928" y="96" font-size="12" fill="#18212f">Conmat</text>
    
      <line x1="900" y1="114" x2="920" y2="114" stroke="#27ae60" stroke-width="3" />
      <text x="928" y="118" font-size="12" fill="#18212f">Petro</text>
    
      <line x1="900" y1="136" x2="920" y2="136" stroke="#c0392b" stroke-width="3" />
      <text x="928" y="140" font-size="12" fill="#18212f">Packaging</text>
    
      <line x1="900" y1="158" x2="920" y2="158" stroke="#8e44ad" stroke-width="3" />
      <text x="928" y="162" font-size="12" fill="#18212f">Insurance</text>
    
      <line x1="900" y1="180" x2="920" y2="180" stroke="#16a085" stroke-width="3" />
      <text x="928" y="184" font-size="12" fill="#18212f">Food</text>
    
      <line x1="900" y1="202" x2="920" y2="202" stroke="#2c3e50" stroke-width="3" />
      <text x="928" y="206" font-size="12" fill="#18212f">Property</text>
    
      <line x1="900" y1="224" x2="920" y2="224" stroke="#d35400" stroke-width="3" />
      <text x="928" y="228" font-size="12" fill="#18212f">Etron</text>
    
      <line x1="900" y1="246" x2="920" y2="246" stroke="#7f8c8d" stroke-width="3" />
      <text x="928" y="250" font-size="12" fill="#18212f">Tourism</text>
    
      <line x1="900" y1="268" x2="920" y2="268" stroke="#e84393" stroke-width="3" />
      <text x="928" y="272" font-size="12" fill="#18212f">Trans</text>
    
      <line x1="900" y1="290" x2="920" y2="290" stroke="#6c5ce7" stroke-width="3" />
      <text x="928" y="294" font-size="12" fill="#18212f">Finance</text>
    
      <line x1="900" y1="312" x2="920" y2="312" stroke="#00b894" stroke-width="3" />
      <text x="928" y="316" font-size="12" fill="#18212f">Commerce</text>
    
      <line x1="900" y1="334" x2="920" y2="334" stroke="#0b84f3" stroke-width="3" />
      <text x="928" y="338" font-size="12" fill="#18212f">Helth</text>
    
      <line x1="900" y1="356" x2="920" y2="356" stroke="#f39c12" stroke-width="3" />
      <text x="928" y="360" font-size="12" fill="#18212f">Banking</text>
    
      <line x1="900" y1="378" x2="920" y2="378" stroke="#27ae60" stroke-width="3" />
      <text x="928" y="382" font-size="12" fill="#18212f">ICT</text>
    
</svg>
