<?xml version="1.0" encoding="UTF-8"?>
<svg xmlns="http://www.w3.org/2000/svg" width="960" height="420" viewBox="0 0 960 420">
  <rect width="100%" height="100%" fill="#f7f9fc" />
  <text x="88" y="24" font-size="20" font-family="Arial, sans-serif" font-weight="700" fill="#18212f">CCET cumulative NVDR NET (2026-03-01 to 2026-04-21)</text>
  <text x="88" y="46" font-size="12" font-family="Arial, sans-serif" fill="#445166">Unit: million baht, based on NVDR Turnover (Net) from value view</text>
  
      <line x1="88" y1="36.0" x2="936" y2="36.0" stroke="#d8dde6" stroke-width="1" />
      <text x="78" y="40.0" text-anchor="end" font-size="12" fill="#445166">0.00</text>
    
      <line x1="88" y1="101.6" x2="936" y2="101.6" stroke="#d8dde6" stroke-width="1" />
      <text x="78" y="105.6" text-anchor="end" font-size="12" fill="#445166">-36.27</text>
    
      <line x1="88" y1="167.2" x2="936" y2="167.2" stroke="#d8dde6" stroke-width="1" />
      <text x="78" y="171.2" text-anchor="end" font-size="12" fill="#445166">-72.54</text>
    
      <line x1="88" y1="232.8" x2="936" y2="232.8" stroke="#d8dde6" stroke-width="1" />
      <text x="78" y="236.8" text-anchor="end" font-size="12" fill="#445166">-108.82</text>
    
      <line x1="88" y1="298.4" x2="936" y2="298.4" stroke="#d8dde6" stroke-width="1" />
      <text x="78" y="302.4" text-anchor="end" font-size="12" fill="#445166">-145.09</text>
    
      <line x1="88" y1="364.0" x2="936" y2="364.0" stroke="#d8dde6" stroke-width="1" />
      <text x="78" y="368.0" text-anchor="end" font-size="12" fill="#445166">-181.36</text>
    
  <line x1="88" y1="36.0" x2="936" y2="36.0" stroke="#7a8799" stroke-width="1.4" stroke-dasharray="4 4" />
  <line x1="88" y1="36" x2="88" y2="364" stroke="#445166" stroke-width="1.2" />
  <line x1="88" y1="364" x2="936" y2="364" stroke="#445166" stroke-width="1.2" />
  
      <line x1="88.0" y1="364" x2="88.0" y2="370" stroke="#445166" stroke-width="1" />
      <text x="88.0" y="386" text-anchor="middle" font-size="12" fill="#445166">2026-03-05</text>
    
      <line x1="497.4" y1="364" x2="497.4" y2="370" stroke="#445166" stroke-width="1" />
      <text x="497.4" y="386" text-anchor="middle" font-size="12" fill="#445166">2026-03-25</text>
    
      <line x1="936.0" y1="364" x2="936.0" y2="370" stroke="#445166" stroke-width="1" />
      <text x="936.0" y="386" text-anchor="middle" font-size="12" fill="#445166">2026-04-21</text>
    
  <polyline fill="none" stroke="#0b84f3" stroke-width="3" points="88.0,72.4 117.2,65.7 146.5,133.1 175.7,59.3 205.0,147.0 234.2,168.0 263.4,252.0 292.7,263.5 321.9,229.8 351.2,238.5 380.4,299.7 409.7,326.1 438.9,351.9 468.1,364.0 497.4,274.9 526.6,300.5 555.9,315.5 585.1,309.3 614.3,310.6 643.6,256.8 672.8,292.0 702.1,319.3 731.3,324.6 760.6,286.3 789.8,293.6 819.0,279.6 848.3,271.1 877.5,261.9 906.8,266.7 936.0,212.0" />
  <circle cx="936.0" cy="212.0" r="4.5" fill="#0b84f3" />
  <text x="932.0" y="202.0" font-size="12" fill="#18212f">-97.30</text>
</svg>
