<?xml version="1.0" encoding="UTF-8"?>
<svg xmlns="http://www.w3.org/2000/svg" width="960" height="420" viewBox="0 0 960 420">
  <rect width="100%" height="100%" fill="#f7f9fc" />
  <text x="88" y="24" font-size="20" font-family="Arial, sans-serif" font-weight="700" fill="#18212f">OR cumulative NVDR NET (2026-03-01 to 2026-04-21)</text>
  <text x="88" y="46" font-size="12" font-family="Arial, sans-serif" fill="#445166">Unit: million baht, based on NVDR Turnover (Net) from value view</text>
  
      <line x1="88" y1="36.0" x2="936" y2="36.0" stroke="#d8dde6" stroke-width="1" />
      <text x="78" y="40.0" text-anchor="end" font-size="12" fill="#445166">0.00</text>
    
      <line x1="88" y1="101.6" x2="936" y2="101.6" stroke="#d8dde6" stroke-width="1" />
      <text x="78" y="105.6" text-anchor="end" font-size="12" fill="#445166">-139.69</text>
    
      <line x1="88" y1="167.2" x2="936" y2="167.2" stroke="#d8dde6" stroke-width="1" />
      <text x="78" y="171.2" text-anchor="end" font-size="12" fill="#445166">-279.38</text>
    
      <line x1="88" y1="232.8" x2="936" y2="232.8" stroke="#d8dde6" stroke-width="1" />
      <text x="78" y="236.8" text-anchor="end" font-size="12" fill="#445166">-419.07</text>
    
      <line x1="88" y1="298.4" x2="936" y2="298.4" stroke="#d8dde6" stroke-width="1" />
      <text x="78" y="302.4" text-anchor="end" font-size="12" fill="#445166">-558.76</text>
    
      <line x1="88" y1="364.0" x2="936" y2="364.0" stroke="#d8dde6" stroke-width="1" />
      <text x="78" y="368.0" text-anchor="end" font-size="12" fill="#445166">-698.45</text>
    
  <line x1="88" y1="36.0" x2="936" y2="36.0" stroke="#7a8799" stroke-width="1.4" stroke-dasharray="4 4" />
  <line x1="88" y1="36" x2="88" y2="364" stroke="#445166" stroke-width="1.2" />
  <line x1="88" y1="364" x2="936" y2="364" stroke="#445166" stroke-width="1.2" />
  
      <line x1="88.0" y1="364" x2="88.0" y2="370" stroke="#445166" stroke-width="1" />
      <text x="88.0" y="386" text-anchor="middle" font-size="12" fill="#445166">2026-03-05</text>
    
      <line x1="497.4" y1="364" x2="497.4" y2="370" stroke="#445166" stroke-width="1" />
      <text x="497.4" y="386" text-anchor="middle" font-size="12" fill="#445166">2026-03-25</text>
    
      <line x1="936.0" y1="364" x2="936.0" y2="370" stroke="#445166" stroke-width="1" />
      <text x="936.0" y="386" text-anchor="middle" font-size="12" fill="#445166">2026-04-21</text>
    
  <polyline fill="none" stroke="#0b84f3" stroke-width="3" points="88.0,119.1 117.2,172.7 146.5,139.0 175.7,177.7 205.0,198.7 234.2,197.6 263.4,211.6 292.7,198.0 321.9,180.5 351.2,232.0 380.4,260.5 409.7,248.2 438.9,259.7 468.1,267.8 497.4,274.5 526.6,323.9 555.9,332.1 585.1,338.3 614.3,317.2 643.6,311.1 672.8,335.2 702.1,331.8 731.3,322.0 760.6,309.9 789.8,323.6 819.0,317.9 848.3,357.5 877.5,364.0 906.8,335.0 936.0,355.4" />
  <circle cx="936.0" cy="355.4" r="4.5" fill="#0b84f3" />
  <text x="932.0" y="345.4" font-size="12" fill="#18212f">-680.07</text>
</svg>
