<?xml version="1.0" encoding="UTF-8"?>
<svg xmlns="http://www.w3.org/2000/svg" width="960" height="420" viewBox="0 0 960 420">
  <rect width="100%" height="100%" fill="#f7f9fc" />
  <text x="88" y="24" font-size="20" font-family="Arial, sans-serif" font-weight="700" fill="#18212f">PTT cumulative NVDR NET (2026-03-01 to 2026-04-21)</text>
  <text x="88" y="46" font-size="12" font-family="Arial, sans-serif" fill="#445166">Unit: million baht, based on NVDR Turnover (Net) from value view</text>
  
      <line x1="88" y1="36.0" x2="936" y2="36.0" stroke="#d8dde6" stroke-width="1" />
      <text x="78" y="40.0" text-anchor="end" font-size="12" fill="#445166">1309.18</text>
    
      <line x1="88" y1="101.6" x2="936" y2="101.6" stroke="#d8dde6" stroke-width="1" />
      <text x="78" y="105.6" text-anchor="end" font-size="12" fill="#445166">825.49</text>
    
      <line x1="88" y1="167.2" x2="936" y2="167.2" stroke="#d8dde6" stroke-width="1" />
      <text x="78" y="171.2" text-anchor="end" font-size="12" fill="#445166">341.80</text>
    
      <line x1="88" y1="232.8" x2="936" y2="232.8" stroke="#d8dde6" stroke-width="1" />
      <text x="78" y="236.8" text-anchor="end" font-size="12" fill="#445166">-141.90</text>
    
      <line x1="88" y1="298.4" x2="936" y2="298.4" stroke="#d8dde6" stroke-width="1" />
      <text x="78" y="302.4" text-anchor="end" font-size="12" fill="#445166">-625.59</text>
    
      <line x1="88" y1="364.0" x2="936" y2="364.0" stroke="#d8dde6" stroke-width="1" />
      <text x="78" y="368.0" text-anchor="end" font-size="12" fill="#445166">-1109.28</text>
    
  <line x1="88" y1="213.6" x2="936" y2="213.6" stroke="#7a8799" stroke-width="1.4" stroke-dasharray="4 4" />
  <line x1="88" y1="36" x2="88" y2="364" stroke="#445166" stroke-width="1.2" />
  <line x1="88" y1="364" x2="936" y2="364" stroke="#445166" stroke-width="1.2" />
  
      <line x1="88.0" y1="364" x2="88.0" y2="370" stroke="#445166" stroke-width="1" />
      <text x="88.0" y="386" text-anchor="middle" font-size="12" fill="#445166">2026-03-05</text>
    
      <line x1="497.4" y1="364" x2="497.4" y2="370" stroke="#445166" stroke-width="1" />
      <text x="497.4" y="386" text-anchor="middle" font-size="12" fill="#445166">2026-03-25</text>
    
      <line x1="936.0" y1="364" x2="936.0" y2="370" stroke="#445166" stroke-width="1" />
      <text x="936.0" y="386" text-anchor="middle" font-size="12" fill="#445166">2026-04-21</text>
    
  <polyline fill="none" stroke="#0b84f3" stroke-width="3" points="88.0,211.2 117.2,172.4 146.5,176.1 175.7,241.7 205.0,237.4 234.2,253.6 263.4,296.8 292.7,364.0 321.9,309.4 351.2,294.5 380.4,265.1 409.7,306.3 438.9,307.8 468.1,312.8 497.4,307.4 526.6,235.7 555.9,192.1 585.1,196.3 614.3,217.9 643.6,181.5 672.8,90.8 702.1,110.7 731.3,58.1 760.6,44.1 789.8,36.0 819.0,77.4 848.3,125.8 877.5,98.0 906.8,59.7 936.0,86.1" />
  <circle cx="936.0" cy="86.1" r="4.5" fill="#0b84f3" />
  <text x="932.0" y="76.1" font-size="12" fill="#18212f">939.73</text>
</svg>
