<?xml version="1.0" encoding="UTF-8"?>
<svg xmlns="http://www.w3.org/2000/svg" width="1080" height="520" viewBox="0 0 1080 520">
  <rect width="100%" height="100%" fill="#f7f9fc" />
  <text x="96" y="26" font-size="20" font-family="Arial, sans-serif" font-weight="700" fill="#18212f">Tourism sector stock group chart</text>
  <text x="96" y="48" font-size="12" font-family="Arial, sans-serif" fill="#445166">Cumulative NVDR NET by stock | 2026-03-01 to 2026-04-21</text>
  
      <line x1="96" y1="54.0" x2="890" y2="54.0" stroke="#d8dde6" stroke-width="1" />
      <text x="86" y="58.0" text-anchor="end" font-size="12" fill="#445166">76.88</text>
    
      <line x1="96" y1="136.0" x2="890" y2="136.0" stroke="#d8dde6" stroke-width="1" />
      <text x="86" y="140.0" text-anchor="end" font-size="12" fill="#445166">-470.38</text>
    
      <line x1="96" y1="218.0" x2="890" y2="218.0" stroke="#d8dde6" stroke-width="1" />
      <text x="86" y="222.0" text-anchor="end" font-size="12" fill="#445166">-1,017.64</text>
    
      <line x1="96" y1="300.0" x2="890" y2="300.0" stroke="#d8dde6" stroke-width="1" />
      <text x="86" y="304.0" text-anchor="end" font-size="12" fill="#445166">-1,564.91</text>
    
      <line x1="96" y1="382.0" x2="890" y2="382.0" stroke="#d8dde6" stroke-width="1" />
      <text x="86" y="386.0" text-anchor="end" font-size="12" fill="#445166">-2,112.17</text>
    
      <line x1="96" y1="464.0" x2="890" y2="464.0" stroke="#d8dde6" stroke-width="1" />
      <text x="86" y="468.0" text-anchor="end" font-size="12" fill="#445166">-2,659.43</text>
    
  <line x1="96" y1="65.5" x2="890" y2="65.5" stroke="#7a8799" stroke-width="1.4" stroke-dasharray="4 4" />
  <line x1="96" y1="54" x2="96" y2="464" stroke="#445166" stroke-width="1.2" />
  <line x1="96" y1="464" x2="890" y2="464" stroke="#445166" stroke-width="1.2" />
  
      <line x1="96.0" y1="464" x2="96.0" y2="470" stroke="#445166" stroke-width="1" />
      <text x="96.0" y="486" text-anchor="middle" font-size="12" fill="#445166">2026-03-05</text>
    
      <line x1="479.3" y1="464" x2="479.3" y2="470" stroke="#445166" stroke-width="1" />
      <text x="479.3" y="486" text-anchor="middle" font-size="12" fill="#445166">2026-03-25</text>
    
      <line x1="890.0" y1="464" x2="890.0" y2="470" stroke="#445166" stroke-width="1" />
      <text x="890.0" y="486" text-anchor="middle" font-size="12" fill="#445166">2026-04-21</text>
    
  <polyline fill="none" stroke="#0b84f3" stroke-width="2.2" points="96.0,72.6 123.4,66.2 150.8,58.1 178.1,63.2 205.5,62.5 232.9,62.1 260.3,63.8 287.7,60.2 315.0,67.6 342.4,69.3 369.8,74.4 397.2,75.7 424.6,68.0 451.9,66.2 479.3,68.1 506.7,73.8 534.1,74.9 561.4,72.5 588.8,71.5 616.2,70.2 643.6,69.2 671.0,71.3 698.3,69.8 725.7,67.5 753.1,73.0 780.5,72.3 807.9,66.3 835.2,64.8 862.6,55.4 890.0,54.0" /><circle cx="890.0" cy="54.0" r="3.5" fill="#0b84f3" /><polyline fill="none" stroke="#f39c12" stroke-width="2.2" points="96.0,117.8 123.4,137.2 150.8,138.1 178.1,173.2 205.5,209.8 232.9,256.5 260.3,260.2 287.7,287.7 315.0,331.1 342.4,350.0 369.8,359.0 397.2,386.9 424.6,409.7 451.9,416.2 479.3,427.0 506.7,439.3 534.1,447.6 561.4,451.9 588.8,464.0 616.2,457.8 643.6,452.6 671.0,456.6 698.3,434.9 725.7,413.6 753.1,430.4 780.5,429.8 807.9,413.4 835.2,416.4 862.6,421.8 890.0,440.8" /><circle cx="890.0" cy="440.8" r="3.5" fill="#f39c12" />
  
      <line x1="900" y1="70" x2="920" y2="70" stroke="#0b84f3" stroke-width="3" />
      <text x="928" y="74" font-size="12" fill="#18212f">CENTEL</text>
    
      <line x1="900" y1="92" x2="920" y2="92" stroke="#f39c12" stroke-width="3" />
      <text x="928" y="96" font-size="12" fill="#18212f">MINT</text>
    
</svg>
