<?xml version="1.0" encoding="UTF-8"?>
<svg xmlns="http://www.w3.org/2000/svg" width="1080" height="520" viewBox="0 0 1080 520">
  <rect width="100%" height="100%" fill="#f7f9fc" />
  <text x="96" y="26" font-size="20" font-family="Arial, sans-serif" font-weight="700" fill="#18212f">Banking sector stock group chart</text>
  <text x="96" y="48" font-size="12" font-family="Arial, sans-serif" fill="#445166">Cumulative NVDR NET by stock | 2026-03-01 to 2026-04-21</text>
  
      <line x1="96" y1="54.0" x2="890" y2="54.0" stroke="#d8dde6" stroke-width="1" />
      <text x="86" y="58.0" text-anchor="end" font-size="12" fill="#445166">2,665.08</text>
    
      <line x1="96" y1="136.0" x2="890" y2="136.0" stroke="#d8dde6" stroke-width="1" />
      <text x="86" y="140.0" text-anchor="end" font-size="12" fill="#445166">1,053.53</text>
    
      <line x1="96" y1="218.0" x2="890" y2="218.0" stroke="#d8dde6" stroke-width="1" />
      <text x="86" y="222.0" text-anchor="end" font-size="12" fill="#445166">-558.01</text>
    
      <line x1="96" y1="300.0" x2="890" y2="300.0" stroke="#d8dde6" stroke-width="1" />
      <text x="86" y="304.0" text-anchor="end" font-size="12" fill="#445166">-2,169.56</text>
    
      <line x1="96" y1="382.0" x2="890" y2="382.0" stroke="#d8dde6" stroke-width="1" />
      <text x="86" y="386.0" text-anchor="end" font-size="12" fill="#445166">-3,781.10</text>
    
      <line x1="96" y1="464.0" x2="890" y2="464.0" stroke="#d8dde6" stroke-width="1" />
      <text x="86" y="468.0" text-anchor="end" font-size="12" fill="#445166">-5,392.65</text>
    
  <line x1="96" y1="189.6" x2="890" y2="189.6" stroke="#7a8799" stroke-width="1.4" stroke-dasharray="4 4" />
  <line x1="96" y1="54" x2="96" y2="464" stroke="#445166" stroke-width="1.2" />
  <line x1="96" y1="464" x2="890" y2="464" stroke="#445166" stroke-width="1.2" />
  
      <line x1="96.0" y1="464" x2="96.0" y2="470" stroke="#445166" stroke-width="1" />
      <text x="96.0" y="486" text-anchor="middle" font-size="12" fill="#445166">2026-03-05</text>
    
      <line x1="479.3" y1="464" x2="479.3" y2="470" stroke="#445166" stroke-width="1" />
      <text x="479.3" y="486" text-anchor="middle" font-size="12" fill="#445166">2026-03-25</text>
    
      <line x1="890.0" y1="464" x2="890.0" y2="470" stroke="#445166" stroke-width="1" />
      <text x="890.0" y="486" text-anchor="middle" font-size="12" fill="#445166">2026-04-21</text>
    
  <polyline fill="none" stroke="#0b84f3" stroke-width="2.2" points="96.0,124.4 123.4,130.1 150.8,131.9 178.1,136.7 205.5,124.7 232.9,131.7 260.3,131.6 287.7,144.6 315.0,135.6 342.4,128.1 369.8,113.5 397.2,112.1 424.6,126.2 451.9,98.5 479.3,88.2 506.7,69.4 534.1,77.0 561.4,79.5 588.8,75.3 616.2,67.6 643.6,54.0 671.0,68.8 698.3,71.8 725.7,71.1 753.1,78.2 780.5,76.4 807.9,84.1 835.2,97.6 862.6,93.9 890.0,94.1" /><circle cx="890.0" cy="94.1" r="3.5" fill="#0b84f3" /><polyline fill="none" stroke="#f39c12" stroke-width="2.2" points="96.0,195.4 123.4,223.1 150.8,229.9 178.1,244.2 205.5,260.9 232.9,278.9 260.3,284.1 287.7,305.6 315.0,304.7 342.4,300.9 369.8,298.4 397.2,293.5 424.6,321.9 451.9,303.6 479.3,296.9 506.7,276.0 534.1,281.1 561.4,284.8 588.8,286.8 616.2,280.1 643.6,267.1 671.0,275.4 698.3,280.6 725.7,263.2 753.1,279.5 780.5,283.1 807.9,284.0 835.2,296.5 862.6,319.7 890.0,162.9" /><circle cx="890.0" cy="162.9" r="3.5" fill="#f39c12" /><polyline fill="none" stroke="#27ae60" stroke-width="2.2" points="96.0,191.4 123.4,195.4 150.8,196.4 178.1,198.5 205.5,197.1 232.9,196.0 260.3,195.3 287.7,196.2 315.0,196.5 342.4,196.4 369.8,199.2 397.2,201.2 424.6,201.3 451.9,193.2 479.3,193.3 506.7,191.5 534.1,190.6 561.4,189.8 588.8,188.8 616.2,166.6 643.6,165.8 671.0,162.2 698.3,162.2 725.7,156.7 753.1,156.2 780.5,155.2 807.9,159.5 835.2,164.5 862.6,152.5 890.0,148.5" /><circle cx="890.0" cy="148.5" r="3.5" fill="#27ae60" /><polyline fill="none" stroke="#c0392b" stroke-width="2.2" points="96.0,216.3 123.4,245.2 150.8,264.1 178.1,270.6 205.5,286.9 232.9,304.1 260.3,319.7 287.7,345.1 315.0,351.2 342.4,363.3 369.8,374.7 397.2,378.2 424.6,397.0 451.9,371.7 479.3,380.7 506.7,377.7 534.1,381.8 561.4,389.7 588.8,382.2 616.2,364.7 643.6,356.3 671.0,360.8 698.3,362.9 725.7,370.1 753.1,391.9 780.5,382.8 807.9,379.7 835.2,336.2 862.6,317.9 890.0,316.4" /><circle cx="890.0" cy="316.4" r="3.5" fill="#c0392b" /><polyline fill="none" stroke="#8e44ad" stroke-width="2.2" points="96.0,199.6 123.4,233.6 150.8,261.3 178.1,259.0 205.5,262.3 232.9,264.9 260.3,261.7 287.7,282.0 315.0,286.7 342.4,275.8 369.8,285.7 397.2,281.8 424.6,300.3 451.9,279.7 479.3,278.5 506.7,254.1 534.1,240.7 561.4,249.6 588.8,270.0 616.2,266.7 643.6,265.4 671.0,274.6 698.3,298.8 725.7,295.9 753.1,321.4 780.5,340.1 807.9,368.7 835.2,398.2 862.6,416.9 890.0,464.0" /><circle cx="890.0" cy="464.0" r="3.5" fill="#8e44ad" /><polyline fill="none" stroke="#16a085" stroke-width="2.2" points="96.0,188.6 123.4,189.2 150.8,192.5 178.1,193.3 205.5,195.4 232.9,196.8 260.3,197.6 287.7,199.5 315.0,200.6 342.4,201.5 369.8,202.5 397.2,205.0 424.6,204.5 451.9,203.7 479.3,204.3 506.7,203.9 534.1,203.9 561.4,205.2 588.8,205.3 616.2,205.3 643.6,205.6 671.0,206.3 698.3,206.3 725.7,206.1 753.1,207.7 780.5,209.6 807.9,211.3 835.2,212.9 862.6,212.3 890.0,210.4" /><circle cx="890.0" cy="210.4" r="3.5" fill="#16a085" /><polyline fill="none" stroke="#2c3e50" stroke-width="2.2" points="96.0,194.8 123.4,202.9 150.8,215.7 178.1,222.7 205.5,227.5 232.9,232.2 260.3,232.3 287.7,236.8 315.0,235.8 342.4,233.0 369.8,227.0 397.2,232.9 424.6,243.2 451.9,238.6 479.3,240.3 506.7,243.1 534.1,244.0 561.4,246.8 588.8,246.2 616.2,244.1 643.6,242.3 671.0,240.9 698.3,233.5 725.7,233.3 753.1,232.6 780.5,233.4 807.9,241.7 835.2,247.9 862.6,256.2 890.0,255.1" /><circle cx="890.0" cy="255.1" r="3.5" fill="#2c3e50" /><polyline fill="none" stroke="#d35400" stroke-width="2.2" points="96.0,194.7 123.4,194.3 150.8,199.9 178.1,204.8 205.5,206.5 232.9,212.1 260.3,200.3 287.7,207.6 315.0,208.3 342.4,208.3 369.8,208.3 397.2,208.3 424.6,216.9 451.9,219.7 479.3,211.4 506.7,196.3 534.1,198.5 561.4,201.6 588.8,203.9 616.2,204.2 643.6,201.7 671.0,205.1 698.3,204.7 725.7,203.8 753.1,207.2 780.5,215.9 807.9,223.2 835.2,236.9 862.6,235.4 890.0,236.0" /><circle cx="890.0" cy="236.0" r="3.5" fill="#d35400" />
  
      <line x1="900" y1="70" x2="920" y2="70" stroke="#0b84f3" stroke-width="3" />
      <text x="928" y="74" font-size="12" fill="#18212f">BBL</text>
    
      <line x1="900" y1="92" x2="920" y2="92" stroke="#f39c12" stroke-width="3" />
      <text x="928" y="96" font-size="12" fill="#18212f">KBANK</text>
    
      <line x1="900" y1="114" x2="920" y2="114" stroke="#27ae60" stroke-width="3" />
      <text x="928" y="118" font-size="12" fill="#18212f">KKP</text>
    
      <line x1="900" y1="136" x2="920" y2="136" stroke="#c0392b" stroke-width="3" />
      <text x="928" y="140" font-size="12" fill="#18212f">KTB</text>
    
      <line x1="900" y1="158" x2="920" y2="158" stroke="#8e44ad" stroke-width="3" />
      <text x="928" y="162" font-size="12" fill="#18212f">SCB</text>
    
      <line x1="900" y1="180" x2="920" y2="180" stroke="#16a085" stroke-width="3" />
      <text x="928" y="184" font-size="12" fill="#18212f">TCAP</text>
    
      <line x1="900" y1="202" x2="920" y2="202" stroke="#2c3e50" stroke-width="3" />
      <text x="928" y="206" font-size="12" fill="#18212f">TISCO</text>
    
      <line x1="900" y1="224" x2="920" y2="224" stroke="#d35400" stroke-width="3" />
      <text x="928" y="228" font-size="12" fill="#18212f">TTB</text>
    
</svg>
