<?xml version="1.0" encoding="UTF-8"?>
<svg xmlns="http://www.w3.org/2000/svg" width="1080" height="520" viewBox="0 0 1080 520">
  <rect width="100%" height="100%" fill="#f7f9fc" />
  <text x="96" y="26" font-size="20" font-family="Arial, sans-serif" font-weight="700" fill="#18212f">Trans sector stock group chart</text>
  <text x="96" y="48" font-size="12" font-family="Arial, sans-serif" fill="#445166">Cumulative NVDR NET by stock | 2026-03-01 to 2026-04-21</text>
  
      <line x1="96" y1="54.0" x2="890" y2="54.0" stroke="#d8dde6" stroke-width="1" />
      <text x="86" y="58.0" text-anchor="end" font-size="12" fill="#445166">0.00</text>
    
      <line x1="96" y1="136.0" x2="890" y2="136.0" stroke="#d8dde6" stroke-width="1" />
      <text x="86" y="140.0" text-anchor="end" font-size="12" fill="#445166">-806.99</text>
    
      <line x1="96" y1="218.0" x2="890" y2="218.0" stroke="#d8dde6" stroke-width="1" />
      <text x="86" y="222.0" text-anchor="end" font-size="12" fill="#445166">-1,613.97</text>
    
      <line x1="96" y1="300.0" x2="890" y2="300.0" stroke="#d8dde6" stroke-width="1" />
      <text x="86" y="304.0" text-anchor="end" font-size="12" fill="#445166">-2,420.96</text>
    
      <line x1="96" y1="382.0" x2="890" y2="382.0" stroke="#d8dde6" stroke-width="1" />
      <text x="86" y="386.0" text-anchor="end" font-size="12" fill="#445166">-3,227.94</text>
    
      <line x1="96" y1="464.0" x2="890" y2="464.0" stroke="#d8dde6" stroke-width="1" />
      <text x="86" y="468.0" text-anchor="end" font-size="12" fill="#445166">-4,034.93</text>
    
  <line x1="96" y1="54.0" x2="890" y2="54.0" stroke="#7a8799" stroke-width="1.4" stroke-dasharray="4 4" />
  <line x1="96" y1="54" x2="96" y2="464" stroke="#445166" stroke-width="1.2" />
  <line x1="96" y1="464" x2="890" y2="464" stroke="#445166" stroke-width="1.2" />
  
      <line x1="96.0" y1="464" x2="96.0" y2="470" stroke="#445166" stroke-width="1" />
      <text x="96.0" y="486" text-anchor="middle" font-size="12" fill="#445166">2026-03-05</text>
    
      <line x1="479.3" y1="464" x2="479.3" y2="470" stroke="#445166" stroke-width="1" />
      <text x="479.3" y="486" text-anchor="middle" font-size="12" fill="#445166">2026-03-25</text>
    
      <line x1="890.0" y1="464" x2="890.0" y2="470" stroke="#445166" stroke-width="1" />
      <text x="890.0" y="486" text-anchor="middle" font-size="12" fill="#445166">2026-04-21</text>
    
  <polyline fill="none" stroke="#0b84f3" stroke-width="2.2" points="96.0,131.4 123.4,214.0 150.8,214.0 178.1,262.4 205.5,308.1 232.9,349.4 260.3,389.6 287.7,385.1 315.0,397.6 342.4,397.8 369.8,425.4 397.2,426.8 424.6,462.2 451.9,451.7 479.3,427.7 506.7,447.3 534.1,445.7 561.4,464.0 588.8,447.4 616.2,430.7 643.6,428.2 671.0,434.5 698.3,427.6 725.7,418.3 753.1,415.6 780.5,420.8 807.9,386.0 835.2,379.4 862.6,371.9 890.0,377.3" /><circle cx="890.0" cy="377.3" r="3.5" fill="#0b84f3" /><polyline fill="none" stroke="#f39c12" stroke-width="2.2" points="96.0,59.6 123.4,63.2 150.8,65.2 178.1,70.1 205.5,73.3 232.9,75.6 260.3,79.9 287.7,81.6 315.0,78.9 342.4,81.7 369.8,84.7 397.2,81.9 424.6,87.5 451.9,86.8 479.3,85.1 506.7,86.0 534.1,85.0 561.4,84.1 588.8,82.5 616.2,82.6 643.6,81.7 671.0,83.2 698.3,82.4 725.7,77.1 753.1,78.9 780.5,79.7 807.9,80.3 835.2,82.2 862.6,83.2 890.0,82.6" /><circle cx="890.0" cy="82.6" r="3.5" fill="#f39c12" /><polyline fill="none" stroke="#27ae60" stroke-width="2.2" points="96.0,57.4 123.4,60.0 150.8,61.3 178.1,62.0 205.5,64.1 232.9,64.8 260.3,66.3 287.7,68.7 315.0,65.9 342.4,68.0 369.8,70.3 397.2,68.1 424.6,70.1 451.9,69.0 479.3,69.9 506.7,71.0 534.1,69.0 561.4,69.8 588.8,67.8 616.2,67.2 643.6,63.0 671.0,64.6 698.3,64.1 725.7,61.3 753.1,62.4 780.5,61.4 807.9,60.9 835.2,62.6 862.6,63.5 890.0,63.8" /><circle cx="890.0" cy="63.8" r="3.5" fill="#27ae60" />
  
      <line x1="900" y1="70" x2="920" y2="70" stroke="#0b84f3" stroke-width="3" />
      <text x="928" y="74" font-size="12" fill="#18212f">AOT</text>
    
      <line x1="900" y1="92" x2="920" y2="92" stroke="#f39c12" stroke-width="3" />
      <text x="928" y="96" font-size="12" fill="#18212f">BEM</text>
    
      <line x1="900" y1="114" x2="920" y2="114" stroke="#27ae60" stroke-width="3" />
      <text x="928" y="118" font-size="12" fill="#18212f">BTS</text>
    
</svg>
