<?xml version="1.0" encoding="UTF-8"?>
<svg xmlns="http://www.w3.org/2000/svg" width="1080" height="520" viewBox="0 0 1080 520">
  <rect width="100%" height="100%" fill="#f7f9fc" />
  <text x="96" y="26" font-size="20" font-family="Arial, sans-serif" font-weight="700" fill="#18212f">Commerce sector stock group chart</text>
  <text x="96" y="48" font-size="12" font-family="Arial, sans-serif" fill="#445166">Cumulative NVDR NET by stock | 2026-03-01 to 2026-04-21</text>
  
      <line x1="96" y1="54.0" x2="890" y2="54.0" stroke="#d8dde6" stroke-width="1" />
      <text x="86" y="58.0" text-anchor="end" font-size="12" fill="#445166">0.00</text>
    
      <line x1="96" y1="136.0" x2="890" y2="136.0" stroke="#d8dde6" stroke-width="1" />
      <text x="86" y="140.0" text-anchor="end" font-size="12" fill="#445166">-537.35</text>
    
      <line x1="96" y1="218.0" x2="890" y2="218.0" stroke="#d8dde6" stroke-width="1" />
      <text x="86" y="222.0" text-anchor="end" font-size="12" fill="#445166">-1,074.71</text>
    
      <line x1="96" y1="300.0" x2="890" y2="300.0" stroke="#d8dde6" stroke-width="1" />
      <text x="86" y="304.0" text-anchor="end" font-size="12" fill="#445166">-1,612.06</text>
    
      <line x1="96" y1="382.0" x2="890" y2="382.0" stroke="#d8dde6" stroke-width="1" />
      <text x="86" y="386.0" text-anchor="end" font-size="12" fill="#445166">-2,149.42</text>
    
      <line x1="96" y1="464.0" x2="890" y2="464.0" stroke="#d8dde6" stroke-width="1" />
      <text x="86" y="468.0" text-anchor="end" font-size="12" fill="#445166">-2,686.77</text>
    
  <line x1="96" y1="54.0" x2="890" y2="54.0" stroke="#7a8799" stroke-width="1.4" stroke-dasharray="4 4" />
  <line x1="96" y1="54" x2="96" y2="464" stroke="#445166" stroke-width="1.2" />
  <line x1="96" y1="464" x2="890" y2="464" stroke="#445166" stroke-width="1.2" />
  
      <line x1="96.0" y1="464" x2="96.0" y2="470" stroke="#445166" stroke-width="1" />
      <text x="96.0" y="486" text-anchor="middle" font-size="12" fill="#445166">2026-03-05</text>
    
      <line x1="479.3" y1="464" x2="479.3" y2="470" stroke="#445166" stroke-width="1" />
      <text x="479.3" y="486" text-anchor="middle" font-size="12" fill="#445166">2026-03-25</text>
    
      <line x1="890.0" y1="464" x2="890.0" y2="470" stroke="#445166" stroke-width="1" />
      <text x="890.0" y="486" text-anchor="middle" font-size="12" fill="#445166">2026-04-21</text>
    
  <polyline fill="none" stroke="#0b84f3" stroke-width="2.2" points="96.0,58.7 123.4,60.7 150.8,62.7 178.1,67.2 205.5,70.1 232.9,65.8 260.3,67.4 287.7,67.1 315.0,66.3 342.4,70.1 369.8,75.5 397.2,75.8 424.6,78.6 451.9,79.5 479.3,78.3 506.7,79.8 534.1,75.6 561.4,70.6 588.8,74.9 616.2,74.4 643.6,74.4 671.0,74.6 698.3,73.7 725.7,71.1 753.1,70.7 780.5,71.1 807.9,70.1 835.2,72.0 862.6,72.5 890.0,72.8" /><circle cx="890.0" cy="72.8" r="3.5" fill="#0b84f3" /><polyline fill="none" stroke="#f39c12" stroke-width="2.2" points="96.0,69.4 123.4,74.0 150.8,73.7 178.1,81.8 205.5,91.3 232.9,97.5 260.3,104.5 287.7,109.3 315.0,126.6 342.4,134.2 369.8,144.3 397.2,165.0 424.6,169.3 451.9,170.2 479.3,177.3 506.7,190.1 534.1,185.8 561.4,185.3 588.8,185.6 616.2,183.1 643.6,191.7 671.0,193.7 698.3,193.4 725.7,190.7 753.1,199.1 780.5,196.6 807.9,203.4 835.2,226.8 862.6,240.2 890.0,249.3" /><circle cx="890.0" cy="249.3" r="3.5" fill="#f39c12" /><polyline fill="none" stroke="#27ae60" stroke-width="2.2" points="96.0,153.1 123.4,198.9 150.8,219.1 178.1,254.9 205.5,301.6 232.9,314.7 260.3,332.9 287.7,366.4 315.0,354.6 342.4,346.1 369.8,400.3 397.2,396.6 424.6,462.5 451.9,443.6 479.3,464.0 506.7,440.0 534.1,344.0 561.4,320.3 588.8,328.9 616.2,351.7 643.6,364.7 671.0,353.6 698.3,339.2 725.7,326.6 753.1,315.2 780.5,345.0 807.9,395.2 835.2,403.8 862.6,382.8 890.0,410.1" /><circle cx="890.0" cy="410.1" r="3.5" fill="#27ae60" /><polyline fill="none" stroke="#c0392b" stroke-width="2.2" points="96.0,63.0 123.4,66.6 150.8,62.2 178.1,76.5 205.5,79.2 232.9,76.2 260.3,72.8 287.7,75.2 315.0,78.4 342.4,87.5 369.8,102.3 397.2,104.6 424.6,100.9 451.9,99.5 479.3,104.4 506.7,102.5 534.1,93.0 561.4,77.0 588.8,67.4 616.2,77.4 643.6,76.1 671.0,75.4 698.3,68.8 725.7,63.3 753.1,67.1 780.5,66.1 807.9,63.7 835.2,67.9 862.6,70.3 890.0,63.2" /><circle cx="890.0" cy="63.2" r="3.5" fill="#c0392b" /><polyline fill="none" stroke="#8e44ad" stroke-width="2.2" points="96.0,70.6 123.4,83.9 150.8,85.8 178.1,101.0 205.5,100.6 232.9,105.5 260.3,109.7 287.7,111.0 315.0,111.0 342.4,108.4 369.8,118.0 397.2,118.1 424.6,120.2 451.9,117.6 479.3,117.7 506.7,120.7 534.1,112.6 561.4,104.2 588.8,97.4 616.2,95.6 643.6,94.9 671.0,95.4 698.3,91.5 725.7,80.9 753.1,85.8 780.5,86.8 807.9,81.2 835.2,84.3 862.6,80.8 890.0,77.6" /><circle cx="890.0" cy="77.6" r="3.5" fill="#8e44ad" />
  
      <line x1="900" y1="70" x2="920" y2="70" stroke="#0b84f3" stroke-width="3" />
      <text x="928" y="74" font-size="12" fill="#18212f">BJC</text>
    
      <line x1="900" y1="92" x2="920" y2="92" stroke="#f39c12" stroke-width="3" />
      <text x="928" y="96" font-size="12" fill="#18212f">COM7</text>
    
      <line x1="900" y1="114" x2="920" y2="114" stroke="#27ae60" stroke-width="3" />
      <text x="928" y="118" font-size="12" fill="#18212f">CPALL</text>
    
      <line x1="900" y1="136" x2="920" y2="136" stroke="#c0392b" stroke-width="3" />
      <text x="928" y="140" font-size="12" fill="#18212f">CRC</text>
    
      <line x1="900" y1="158" x2="920" y2="158" stroke="#8e44ad" stroke-width="3" />
      <text x="928" y="162" font-size="12" fill="#18212f">HMPRO</text>
    
</svg>
