<?xml version="1.0" encoding="UTF-8"?>
<svg xmlns="http://www.w3.org/2000/svg" width="1080" height="520" viewBox="0 0 1080 520">
  <rect width="100%" height="100%" fill="#f7f9fc" />
  <text x="96" y="26" font-size="20" font-family="Arial, sans-serif" font-weight="700" fill="#18212f">Energy sector stock group chart</text>
  <text x="96" y="48" font-size="12" font-family="Arial, sans-serif" fill="#445166">Cumulative NVDR NET by stock | 2026-03-01 to 2026-04-21</text>
  
      <line x1="96" y1="54.0" x2="890" y2="54.0" stroke="#d8dde6" stroke-width="1" />
      <text x="86" y="58.0" text-anchor="end" font-size="12" fill="#445166">15,431.41</text>
    
      <line x1="96" y1="136.0" x2="890" y2="136.0" stroke="#d8dde6" stroke-width="1" />
      <text x="86" y="140.0" text-anchor="end" font-size="12" fill="#445166">11,435.54</text>
    
      <line x1="96" y1="218.0" x2="890" y2="218.0" stroke="#d8dde6" stroke-width="1" />
      <text x="86" y="222.0" text-anchor="end" font-size="12" fill="#445166">7,439.68</text>
    
      <line x1="96" y1="300.0" x2="890" y2="300.0" stroke="#d8dde6" stroke-width="1" />
      <text x="86" y="304.0" text-anchor="end" font-size="12" fill="#445166">3,443.81</text>
    
      <line x1="96" y1="382.0" x2="890" y2="382.0" stroke="#d8dde6" stroke-width="1" />
      <text x="86" y="386.0" text-anchor="end" font-size="12" fill="#445166">-552.05</text>
    
      <line x1="96" y1="464.0" x2="890" y2="464.0" stroke="#d8dde6" stroke-width="1" />
      <text x="86" y="468.0" text-anchor="end" font-size="12" fill="#445166">-4,547.92</text>
    
  <line x1="96" y1="370.7" x2="890" y2="370.7" stroke="#7a8799" stroke-width="1.4" stroke-dasharray="4 4" />
  <line x1="96" y1="54" x2="96" y2="464" stroke="#445166" stroke-width="1.2" />
  <line x1="96" y1="464" x2="890" y2="464" stroke="#445166" stroke-width="1.2" />
  
      <line x1="96.0" y1="464" x2="96.0" y2="470" stroke="#445166" stroke-width="1" />
      <text x="96.0" y="486" text-anchor="middle" font-size="12" fill="#445166">2026-03-05</text>
    
      <line x1="479.3" y1="464" x2="479.3" y2="470" stroke="#445166" stroke-width="1" />
      <text x="479.3" y="486" text-anchor="middle" font-size="12" fill="#445166">2026-03-25</text>
    
      <line x1="890.0" y1="464" x2="890.0" y2="470" stroke="#445166" stroke-width="1" />
      <text x="890.0" y="486" text-anchor="middle" font-size="12" fill="#445166">2026-04-21</text>
    
  <polyline fill="none" stroke="#0b84f3" stroke-width="2.2" points="96.0,365.1 123.4,366.6 150.8,369.5 178.1,369.4 205.5,369.5 232.9,369.4 260.3,366.4 287.7,369.4 315.0,369.3 342.4,370.4 369.8,369.3 397.2,370.3 424.6,365.7 451.9,368.4 479.3,367.5 506.7,369.1 534.1,366.6 561.4,364.2 588.8,365.1 616.2,365.3 643.6,365.5 671.0,366.4 698.3,366.3 725.7,366.5 753.1,366.1 780.5,366.8 807.9,364.0 835.2,367.2 862.6,367.5 890.0,367.9" /><circle cx="890.0" cy="367.9" r="3.5" fill="#0b84f3" /><polyline fill="none" stroke="#f39c12" stroke-width="2.2" points="96.0,371.7 123.4,371.9 150.8,372.9 178.1,373.2 205.5,373.9 232.9,373.5 260.3,375.1 287.7,375.6 315.0,375.6 342.4,375.4 369.8,376.0 397.2,375.5 424.6,375.8 451.9,375.7 479.3,375.6 506.7,375.7 534.1,376.2 561.4,376.2 588.8,374.9 616.2,374.9 643.6,375.1 671.0,375.4 698.3,375.0 725.7,374.6 753.1,374.5 780.5,374.4 807.9,374.8 835.2,375.0 862.6,374.6 890.0,374.5" /><circle cx="890.0" cy="374.5" r="3.5" fill="#f39c12" /><polyline fill="none" stroke="#27ae60" stroke-width="2.2" points="96.0,372.6 123.4,375.6 150.8,375.9 178.1,378.9 205.5,380.4 232.9,380.8 260.3,381.9 287.7,382.3 315.0,381.2 342.4,381.7 369.8,383.1 397.2,381.7 424.6,379.7 451.9,379.6 479.3,380.1 506.7,380.3 534.1,380.3 561.4,380.4 588.8,381.7 616.2,383.2 643.6,384.3 671.0,384.5 698.3,384.2 725.7,384.2 753.1,386.0 780.5,386.5 807.9,386.8 835.2,387.7 862.6,387.4 890.0,388.3" /><circle cx="890.0" cy="388.3" r="3.5" fill="#27ae60" /><polyline fill="none" stroke="#c0392b" stroke-width="2.2" points="96.0,375.9 123.4,379.1 150.8,386.1 178.1,393.4 205.5,401.4 232.9,400.2 260.3,407.2 287.7,411.7 315.0,420.5 342.4,428.3 369.8,439.2 397.2,437.4 424.6,449.0 451.9,455.0 479.3,449.3 506.7,449.7 534.1,442.4 561.4,451.4 588.8,458.3 616.2,458.2 643.6,461.8 671.0,464.0 698.3,461.0 725.7,457.4 753.1,460.4 780.5,459.3 807.9,458.4 835.2,457.3 862.6,454.3 890.0,452.7" /><circle cx="890.0" cy="452.7" r="3.5" fill="#c0392b" /><polyline fill="none" stroke="#8e44ad" stroke-width="2.2" points="96.0,374.3 123.4,376.6 150.8,375.2 178.1,376.9 205.5,377.8 232.9,377.7 260.3,378.3 287.7,377.8 315.0,377.0 342.4,379.2 369.8,380.5 397.2,379.9 424.6,380.4 451.9,380.8 479.3,381.1 506.7,383.3 534.1,383.6 561.4,383.9 588.8,383.0 616.2,382.7 643.6,383.7 671.0,383.6 698.3,383.2 725.7,382.6 753.1,383.2 780.5,383.0 807.9,384.7 835.2,385.0 862.6,383.7 890.0,384.6" /><circle cx="890.0" cy="384.6" r="3.5" fill="#8e44ad" /><polyline fill="none" stroke="#16a085" stroke-width="2.2" points="96.0,370.3 123.4,364.4 150.8,365.0 178.1,374.9 205.5,374.3 232.9,376.7 260.3,383.3 287.7,393.4 315.0,385.2 342.4,382.9 369.8,378.5 397.2,384.7 424.6,384.9 451.9,385.7 479.3,384.9 506.7,374.0 534.1,367.4 561.4,368.1 588.8,371.3 616.2,365.8 643.6,352.1 671.0,355.1 698.3,347.1 725.7,345.0 753.1,343.8 780.5,350.1 807.9,357.4 835.2,353.2 862.6,347.4 890.0,351.4" /><circle cx="890.0" cy="351.4" r="3.5" fill="#16a085" /><polyline fill="none" stroke="#2c3e50" stroke-width="2.2" points="96.0,359.1 123.4,364.6 150.8,379.5 178.1,376.5 205.5,356.5 232.9,346.5 260.3,316.8 287.7,325.4 315.0,303.7 342.4,305.3 369.8,270.8 397.2,267.3 424.6,256.9 451.9,249.9 479.3,241.2 506.7,209.1 534.1,188.6 561.4,186.9 588.8,175.1 616.2,168.5 643.6,158.8 671.0,168.9 698.3,156.9 725.7,146.4 753.1,123.9 780.5,112.5 807.9,94.6 835.2,68.7 862.6,58.5 890.0,54.0" /><circle cx="890.0" cy="54.0" r="3.5" fill="#2c3e50" /><polyline fill="none" stroke="#d35400" stroke-width="2.2" points="96.0,370.8 123.4,371.3 150.8,371.3 178.1,371.7 205.5,371.7 232.9,371.1 260.3,371.8 287.7,371.7 315.0,371.4 342.4,371.6 369.8,372.1 397.2,371.9 424.6,372.5 451.9,372.4 479.3,371.4 506.7,371.2 534.1,370.9 561.4,370.8 588.8,370.5 616.2,370.1 643.6,370.1 671.0,370.2 698.3,369.9 725.7,369.6 753.1,369.9 780.5,369.8 807.9,369.7 835.2,369.8 862.6,369.8 890.0,369.8" /><circle cx="890.0" cy="369.8" r="3.5" fill="#d35400" /><polyline fill="none" stroke="#7f8c8d" stroke-width="2.2" points="96.0,374.2 123.4,375.9 150.8,370.3 178.1,371.0 205.5,373.1 232.9,374.6 260.3,379.6 287.7,380.5 315.0,383.7 342.4,386.5 369.8,386.7 397.2,383.0 424.6,383.4 451.9,380.5 479.3,381.1 506.7,384.0 534.1,384.7 561.4,383.8 588.8,388.3 616.2,389.4 643.6,389.4 671.0,388.4 698.3,382.0 725.7,383.2 753.1,381.5 780.5,382.8 807.9,381.0 835.2,380.2 862.6,381.2 890.0,380.8" /><circle cx="890.0" cy="380.8" r="3.5" fill="#7f8c8d" />
  
      <line x1="900" y1="70" x2="920" y2="70" stroke="#0b84f3" stroke-width="3" />
      <text x="928" y="74" font-size="12" fill="#18212f">BANPU</text>
    
      <line x1="900" y1="92" x2="920" y2="92" stroke="#f39c12" stroke-width="3" />
      <text x="928" y="96" font-size="12" fill="#18212f">EGCO</text>
    
      <line x1="900" y1="114" x2="920" y2="114" stroke="#27ae60" stroke-width="3" />
      <text x="928" y="118" font-size="12" fill="#18212f">GPSC</text>
    
      <line x1="900" y1="136" x2="920" y2="136" stroke="#c0392b" stroke-width="3" />
      <text x="928" y="140" font-size="12" fill="#18212f">GULF</text>
    
      <line x1="900" y1="158" x2="920" y2="158" stroke="#8e44ad" stroke-width="3" />
      <text x="928" y="162" font-size="12" fill="#18212f">OR</text>
    
      <line x1="900" y1="180" x2="920" y2="180" stroke="#16a085" stroke-width="3" />
      <text x="928" y="184" font-size="12" fill="#18212f">PTT</text>
    
      <line x1="900" y1="202" x2="920" y2="202" stroke="#2c3e50" stroke-width="3" />
      <text x="928" y="206" font-size="12" fill="#18212f">PTTEP</text>
    
      <line x1="900" y1="224" x2="920" y2="224" stroke="#d35400" stroke-width="3" />
      <text x="928" y="228" font-size="12" fill="#18212f">RATCH</text>
    
      <line x1="900" y1="246" x2="920" y2="246" stroke="#7f8c8d" stroke-width="3" />
      <text x="928" y="250" font-size="12" fill="#18212f">TOP</text>
    
</svg>
