<?xml version="1.0" encoding="UTF-8"?>
<svg xmlns="http://www.w3.org/2000/svg" width="1080" height="520" viewBox="0 0 1080 520">
  <rect width="100%" height="100%" fill="#f7f9fc" />
  <text x="96" y="26" font-size="20" font-family="Arial, sans-serif" font-weight="700" fill="#18212f">Food sector stock group chart</text>
  <text x="96" y="48" font-size="12" font-family="Arial, sans-serif" fill="#445166">Cumulative NVDR NET by stock | 2026-03-01 to 2026-04-21</text>
  
      <line x1="96" y1="54.0" x2="890" y2="54.0" stroke="#d8dde6" stroke-width="1" />
      <text x="86" y="58.0" text-anchor="end" font-size="12" fill="#445166">36.87</text>
    
      <line x1="96" y1="136.0" x2="890" y2="136.0" stroke="#d8dde6" stroke-width="1" />
      <text x="86" y="140.0" text-anchor="end" font-size="12" fill="#445166">-126.22</text>
    
      <line x1="96" y1="218.0" x2="890" y2="218.0" stroke="#d8dde6" stroke-width="1" />
      <text x="86" y="222.0" text-anchor="end" font-size="12" fill="#445166">-289.32</text>
    
      <line x1="96" y1="300.0" x2="890" y2="300.0" stroke="#d8dde6" stroke-width="1" />
      <text x="86" y="304.0" text-anchor="end" font-size="12" fill="#445166">-452.41</text>
    
      <line x1="96" y1="382.0" x2="890" y2="382.0" stroke="#d8dde6" stroke-width="1" />
      <text x="86" y="386.0" text-anchor="end" font-size="12" fill="#445166">-615.51</text>
    
      <line x1="96" y1="464.0" x2="890" y2="464.0" stroke="#d8dde6" stroke-width="1" />
      <text x="86" y="468.0" text-anchor="end" font-size="12" fill="#445166">-778.60</text>
    
  <line x1="96" y1="72.5" x2="890" y2="72.5" stroke="#7a8799" stroke-width="1.4" stroke-dasharray="4 4" />
  <line x1="96" y1="54" x2="96" y2="464" stroke="#445166" stroke-width="1.2" />
  <line x1="96" y1="464" x2="890" y2="464" stroke="#445166" stroke-width="1.2" />
  
      <line x1="96.0" y1="464" x2="96.0" y2="470" stroke="#445166" stroke-width="1" />
      <text x="96.0" y="486" text-anchor="middle" font-size="12" fill="#445166">2026-03-05</text>
    
      <line x1="479.3" y1="464" x2="479.3" y2="470" stroke="#445166" stroke-width="1" />
      <text x="479.3" y="486" text-anchor="middle" font-size="12" fill="#445166">2026-03-25</text>
    
      <line x1="890.0" y1="464" x2="890.0" y2="470" stroke="#445166" stroke-width="1" />
      <text x="890.0" y="486" text-anchor="middle" font-size="12" fill="#445166">2026-04-21</text>
    
  <polyline fill="none" stroke="#0b84f3" stroke-width="2.2" points="96.0,96.8 123.4,101.7 150.8,99.0 178.1,120.0 205.5,128.0 232.9,136.4 260.3,160.5 287.7,165.0 315.0,164.6 342.4,166.1 369.8,180.5 397.2,173.2 424.6,182.1 451.9,177.0 479.3,165.4 506.7,167.9 534.1,169.0 561.4,151.0 588.8,141.5 616.2,144.8 643.6,144.0 671.0,133.6 698.3,129.7 725.7,120.6 753.1,130.7 780.5,130.0 807.9,118.2 835.2,127.6 862.6,128.6 890.0,129.6" /><circle cx="890.0" cy="129.6" r="3.5" fill="#0b84f3" /><polyline fill="none" stroke="#f39c12" stroke-width="2.2" points="96.0,247.4 123.4,276.3 150.8,287.6 178.1,296.9 205.5,363.8 232.9,335.1 260.3,322.9 287.7,289.9 315.0,237.1 342.4,200.7 369.8,265.8 397.2,167.8 424.6,326.6 451.9,431.7 479.3,464.0 506.7,396.0 534.1,307.5 561.4,314.2 588.8,302.5 616.2,286.0 643.6,237.0 671.0,240.7 698.3,192.0 725.7,181.3 753.1,172.9 780.5,147.2 807.9,278.0 835.2,306.0 862.6,266.4 890.0,278.2" /><circle cx="890.0" cy="278.2" r="3.5" fill="#f39c12" /><polyline fill="none" stroke="#27ae60" stroke-width="2.2" points="96.0,70.7 123.4,65.7 150.8,54.0 178.1,111.2 205.5,149.9 232.9,142.7 260.3,164.2 287.7,164.1 315.0,156.7 342.4,156.6 369.8,185.0 397.2,183.9 424.6,192.1 451.9,189.6 479.3,182.7 506.7,185.5 534.1,151.3 561.4,131.0 588.8,125.1 616.2,118.9 643.6,118.0 671.0,115.7 698.3,93.6 725.7,91.1 753.1,101.6 780.5,99.0 807.9,92.6 835.2,92.5 862.6,93.1 890.0,87.7" /><circle cx="890.0" cy="87.7" r="3.5" fill="#27ae60" /><polyline fill="none" stroke="#c0392b" stroke-width="2.2" points="96.0,106.0 123.4,142.6 150.8,129.2 178.1,138.1 205.5,156.2 232.9,182.7 260.3,196.1 287.7,199.8 315.0,182.6 342.4,187.1 369.8,207.5 397.2,212.3 424.6,224.5 451.9,229.1 479.3,215.2 506.7,211.7 534.1,193.7 561.4,177.9 588.8,172.7 616.2,171.2 643.6,162.4 671.0,162.5 698.3,125.1 725.7,118.0 753.1,95.5 780.5,84.8 807.9,79.1 835.2,69.2 862.6,56.1 890.0,59.9" /><circle cx="890.0" cy="59.9" r="3.5" fill="#c0392b" />
  
      <line x1="900" y1="70" x2="920" y2="70" stroke="#0b84f3" stroke-width="3" />
      <text x="928" y="74" font-size="12" fill="#18212f">CBG</text>
    
      <line x1="900" y1="92" x2="920" y2="92" stroke="#f39c12" stroke-width="3" />
      <text x="928" y="96" font-size="12" fill="#18212f">CPF</text>
    
      <line x1="900" y1="114" x2="920" y2="114" stroke="#27ae60" stroke-width="3" />
      <text x="928" y="118" font-size="12" fill="#18212f">OSP</text>
    
      <line x1="900" y1="136" x2="920" y2="136" stroke="#c0392b" stroke-width="3" />
      <text x="928" y="140" font-size="12" fill="#18212f">TU</text>
    
</svg>
