<?xml version="1.0" encoding="UTF-8"?>
<svg xmlns="http://www.w3.org/2000/svg" width="1080" height="520" viewBox="0 0 1080 520">
  <rect width="100%" height="100%" fill="#f7f9fc" />
  <text x="96" y="26" font-size="20" font-family="Arial, sans-serif" font-weight="700" fill="#18212f">Finance sector stock group chart</text>
  <text x="96" y="48" font-size="12" font-family="Arial, sans-serif" fill="#445166">Cumulative NVDR NET by stock | 2026-03-01 to 2026-04-21</text>
  
      <line x1="96" y1="54.0" x2="890" y2="54.0" stroke="#d8dde6" stroke-width="1" />
      <text x="86" y="58.0" text-anchor="end" font-size="12" fill="#445166">109.78</text>
    
      <line x1="96" y1="136.0" x2="890" y2="136.0" stroke="#d8dde6" stroke-width="1" />
      <text x="86" y="140.0" text-anchor="end" font-size="12" fill="#445166">-291.11</text>
    
      <line x1="96" y1="218.0" x2="890" y2="218.0" stroke="#d8dde6" stroke-width="1" />
      <text x="86" y="222.0" text-anchor="end" font-size="12" fill="#445166">-691.99</text>
    
      <line x1="96" y1="300.0" x2="890" y2="300.0" stroke="#d8dde6" stroke-width="1" />
      <text x="86" y="304.0" text-anchor="end" font-size="12" fill="#445166">-1,092.88</text>
    
      <line x1="96" y1="382.0" x2="890" y2="382.0" stroke="#d8dde6" stroke-width="1" />
      <text x="86" y="386.0" text-anchor="end" font-size="12" fill="#445166">-1,493.76</text>
    
      <line x1="96" y1="464.0" x2="890" y2="464.0" stroke="#d8dde6" stroke-width="1" />
      <text x="86" y="468.0" text-anchor="end" font-size="12" fill="#445166">-1,894.65</text>
    
  <line x1="96" y1="76.5" x2="890" y2="76.5" stroke="#7a8799" stroke-width="1.4" stroke-dasharray="4 4" />
  <line x1="96" y1="54" x2="96" y2="464" stroke="#445166" stroke-width="1.2" />
  <line x1="96" y1="464" x2="890" y2="464" stroke="#445166" stroke-width="1.2" />
  
      <line x1="96.0" y1="464" x2="96.0" y2="470" stroke="#445166" stroke-width="1" />
      <text x="96.0" y="486" text-anchor="middle" font-size="12" fill="#445166">2026-03-05</text>
    
      <line x1="479.3" y1="464" x2="479.3" y2="470" stroke="#445166" stroke-width="1" />
      <text x="479.3" y="486" text-anchor="middle" font-size="12" fill="#445166">2026-03-25</text>
    
      <line x1="890.0" y1="464" x2="890.0" y2="470" stroke="#445166" stroke-width="1" />
      <text x="890.0" y="486" text-anchor="middle" font-size="12" fill="#445166">2026-04-21</text>
    
  <polyline fill="none" stroke="#0b84f3" stroke-width="2.2" points="96.0,140.8 123.4,162.5 150.8,163.3 178.1,205.8 205.5,216.7 232.9,272.9 260.3,293.5 287.7,316.5 315.0,320.7 342.4,341.5 369.8,363.3 397.2,370.2 424.6,386.7 451.9,394.5 479.3,397.0 506.7,406.2 534.1,397.7 561.4,385.5 588.8,389.9 616.2,381.6 643.6,397.1 671.0,407.6 698.3,403.9 725.7,413.5 753.1,444.8 780.5,452.4 807.9,441.3 835.2,464.0 862.6,431.6 890.0,442.3" /><circle cx="890.0" cy="442.3" r="3.5" fill="#0b84f3" /><polyline fill="none" stroke="#f39c12" stroke-width="2.2" points="96.0,101.3 123.4,87.3 150.8,54.0 178.1,62.3 205.5,65.6 232.9,69.7 260.3,77.4 287.7,77.5 315.0,93.0 342.4,81.6 369.8,78.1 397.2,96.6 424.6,103.8 451.9,108.4 479.3,154.3 506.7,187.8 534.1,204.2 561.4,202.4 588.8,219.1 616.2,221.3 643.6,222.5 671.0,225.0 698.3,213.7 725.7,191.0 753.1,209.9 780.5,211.4 807.9,216.0 835.2,217.4 862.6,209.7 890.0,219.0" /><circle cx="890.0" cy="219.0" r="3.5" fill="#f39c12" /><polyline fill="none" stroke="#27ae60" stroke-width="2.2" points="96.0,78.2 123.4,80.3 150.8,73.2 178.1,79.5 205.5,81.9 232.9,77.9 260.3,92.2 287.7,94.3 315.0,100.8 342.4,96.5 369.8,92.8 397.2,87.9 424.6,77.5 451.9,71.1 479.3,80.4 506.7,85.1 534.1,77.6 561.4,64.7 588.8,76.6 616.2,81.8 643.6,92.5 671.0,90.8 698.3,85.2 725.7,77.9 753.1,95.0 780.5,97.2 807.9,98.7 835.2,98.2 862.6,94.2 890.0,96.6" /><circle cx="890.0" cy="96.6" r="3.5" fill="#27ae60" /><polyline fill="none" stroke="#c0392b" stroke-width="2.2" points="96.0,102.6 123.4,113.3 150.8,132.3 178.1,143.8 205.5,152.1 232.9,163.4 260.3,171.2 287.7,171.5 315.0,185.7 342.4,196.6 369.8,202.8 397.2,224.0 424.6,224.4 451.9,224.3 479.3,251.8 506.7,272.6 534.1,280.8 561.4,277.3 588.8,274.8 616.2,287.0 643.6,299.4 671.0,302.6 698.3,298.6 725.7,277.1 753.1,281.4 780.5,282.4 807.9,297.1 835.2,305.2 862.6,309.6 890.0,304.9" /><circle cx="890.0" cy="304.9" r="3.5" fill="#c0392b" />
  
      <line x1="900" y1="70" x2="920" y2="70" stroke="#0b84f3" stroke-width="3" />
      <text x="928" y="74" font-size="12" fill="#18212f">KTC</text>
    
      <line x1="900" y1="92" x2="920" y2="92" stroke="#f39c12" stroke-width="3" />
      <text x="928" y="96" font-size="12" fill="#18212f">MTC</text>
    
      <line x1="900" y1="114" x2="920" y2="114" stroke="#27ae60" stroke-width="3" />
      <text x="928" y="118" font-size="12" fill="#18212f">SAWAD</text>
    
      <line x1="900" y1="136" x2="920" y2="136" stroke="#c0392b" stroke-width="3" />
      <text x="928" y="140" font-size="12" fill="#18212f">TIDLOR</text>
    
</svg>
