<?xml version="1.0" encoding="UTF-8"?>
<svg xmlns="http://www.w3.org/2000/svg" width="1080" height="520" viewBox="0 0 1080 520">
  <rect width="100%" height="100%" fill="#f7f9fc" />
  <text x="96" y="26" font-size="20" font-family="Arial, sans-serif" font-weight="700" fill="#18212f">Property sector stock group chart</text>
  <text x="96" y="48" font-size="12" font-family="Arial, sans-serif" fill="#445166">Cumulative NVDR NET by stock | 2026-03-01 to 2026-04-21</text>
  
      <line x1="96" y1="54.0" x2="890" y2="54.0" stroke="#d8dde6" stroke-width="1" />
      <text x="86" y="58.0" text-anchor="end" font-size="12" fill="#445166">22.17</text>
    
      <line x1="96" y1="136.0" x2="890" y2="136.0" stroke="#d8dde6" stroke-width="1" />
      <text x="86" y="140.0" text-anchor="end" font-size="12" fill="#445166">-131.08</text>
    
      <line x1="96" y1="218.0" x2="890" y2="218.0" stroke="#d8dde6" stroke-width="1" />
      <text x="86" y="222.0" text-anchor="end" font-size="12" fill="#445166">-284.33</text>
    
      <line x1="96" y1="300.0" x2="890" y2="300.0" stroke="#d8dde6" stroke-width="1" />
      <text x="86" y="304.0" text-anchor="end" font-size="12" fill="#445166">-437.59</text>
    
      <line x1="96" y1="382.0" x2="890" y2="382.0" stroke="#d8dde6" stroke-width="1" />
      <text x="86" y="386.0" text-anchor="end" font-size="12" fill="#445166">-590.84</text>
    
      <line x1="96" y1="464.0" x2="890" y2="464.0" stroke="#d8dde6" stroke-width="1" />
      <text x="86" y="468.0" text-anchor="end" font-size="12" fill="#445166">-744.09</text>
    
  <line x1="96" y1="65.9" x2="890" y2="65.9" stroke="#7a8799" stroke-width="1.4" stroke-dasharray="4 4" />
  <line x1="96" y1="54" x2="96" y2="464" stroke="#445166" stroke-width="1.2" />
  <line x1="96" y1="464" x2="890" y2="464" stroke="#445166" stroke-width="1.2" />
  
      <line x1="96.0" y1="464" x2="96.0" y2="470" stroke="#445166" stroke-width="1" />
      <text x="96.0" y="486" text-anchor="middle" font-size="12" fill="#445166">2026-03-05</text>
    
      <line x1="479.3" y1="464" x2="479.3" y2="470" stroke="#445166" stroke-width="1" />
      <text x="479.3" y="486" text-anchor="middle" font-size="12" fill="#445166">2026-03-25</text>
    
      <line x1="890.0" y1="464" x2="890.0" y2="470" stroke="#445166" stroke-width="1" />
      <text x="890.0" y="486" text-anchor="middle" font-size="12" fill="#445166">2026-04-21</text>
    
  <polyline fill="none" stroke="#0b84f3" stroke-width="2.2" points="96.0,85.4 123.4,91.4 150.8,82.4 178.1,93.2 205.5,106.3 232.9,119.1 260.3,132.8 287.7,123.7 315.0,127.7 342.4,139.0 369.8,165.6 397.2,167.0 424.6,188.6 451.9,189.3 479.3,184.6 506.7,195.3 534.1,187.3 561.4,186.9 588.8,182.4 616.2,187.1 643.6,179.8 671.0,187.9 698.3,177.9 725.7,173.4 753.1,182.1 780.5,181.8 807.9,180.1 835.2,165.3 862.6,169.0 890.0,173.4" /><circle cx="890.0" cy="173.4" r="3.5" fill="#0b84f3" /><polyline fill="none" stroke="#f39c12" stroke-width="2.2" points="96.0,54.0 123.4,125.0 150.8,132.4 178.1,235.7 205.5,318.1 232.9,390.0 260.3,447.6 287.7,429.2 315.0,464.0 342.4,427.9 369.8,409.8 397.2,349.5 424.6,292.0 451.9,311.8 479.3,324.5 506.7,359.1 534.1,322.7 561.4,312.2 588.8,315.0 616.2,307.7 643.6,320.3 671.0,321.0 698.3,328.5 725.7,306.1 753.1,392.7 780.5,395.9 807.9,354.9 835.2,371.8 862.6,340.8 890.0,344.9" /><circle cx="890.0" cy="344.9" r="3.5" fill="#f39c12" /><polyline fill="none" stroke="#27ae60" stroke-width="2.2" points="96.0,89.6 123.4,113.8 150.8,107.9 178.1,118.3 205.5,122.6 232.9,128.2 260.3,130.6 287.7,132.0 315.0,131.8 342.4,141.8 369.8,161.2 397.2,161.7 424.6,183.2 451.9,189.9 479.3,184.9 506.7,188.7 534.1,185.1 561.4,180.5 588.8,168.0 616.2,162.1 643.6,154.2 671.0,152.1 698.3,151.1 725.7,131.2 753.1,134.8 780.5,134.7 807.9,135.1 835.2,132.4 862.6,130.3 890.0,120.4" /><circle cx="890.0" cy="120.4" r="3.5" fill="#27ae60" /><polyline fill="none" stroke="#c0392b" stroke-width="2.2" points="96.0,93.7 123.4,108.1 150.8,115.1 178.1,180.5 205.5,238.8 232.9,287.1 260.3,322.5 287.7,343.5 315.0,372.2 342.4,397.1 369.8,435.1 397.2,450.0 424.6,452.5 451.9,463.4 479.3,407.7 506.7,293.2 534.1,311.9 561.4,299.2 588.8,294.2 616.2,271.8 643.6,296.7 671.0,275.9 698.3,273.4 725.7,256.4 753.1,279.5 780.5,285.1 807.9,231.8 835.2,247.0 862.6,249.2 890.0,221.5" /><circle cx="890.0" cy="221.5" r="3.5" fill="#c0392b" />
  
      <line x1="900" y1="70" x2="920" y2="70" stroke="#0b84f3" stroke-width="3" />
      <text x="928" y="74" font-size="12" fill="#18212f">AWC</text>
    
      <line x1="900" y1="92" x2="920" y2="92" stroke="#f39c12" stroke-width="3" />
      <text x="928" y="96" font-size="12" fill="#18212f">CPN</text>
    
      <line x1="900" y1="114" x2="920" y2="114" stroke="#27ae60" stroke-width="3" />
      <text x="928" y="118" font-size="12" fill="#18212f">LH</text>
    
      <line x1="900" y1="136" x2="920" y2="136" stroke="#c0392b" stroke-width="3" />
      <text x="928" y="140" font-size="12" fill="#18212f">WHA</text>
    
</svg>
