<?xml version="1.0" encoding="UTF-8"?>
<svg xmlns="http://www.w3.org/2000/svg" width="1080" height="520" viewBox="0 0 1080 520">
  <rect width="100%" height="100%" fill="#f7f9fc" />
  <text x="96" y="26" font-size="20" font-family="Arial, sans-serif" font-weight="700" fill="#18212f">Petro sector stock group chart</text>
  <text x="96" y="48" font-size="12" font-family="Arial, sans-serif" fill="#445166">Cumulative NVDR NET by stock | 2026-03-01 to 2026-04-21</text>
  
      <line x1="96" y1="54.0" x2="890" y2="54.0" stroke="#d8dde6" stroke-width="1" />
      <text x="86" y="58.0" text-anchor="end" font-size="12" fill="#445166">1,687.14</text>
    
      <line x1="96" y1="136.0" x2="890" y2="136.0" stroke="#d8dde6" stroke-width="1" />
      <text x="86" y="140.0" text-anchor="end" font-size="12" fill="#445166">1,199.72</text>
    
      <line x1="96" y1="218.0" x2="890" y2="218.0" stroke="#d8dde6" stroke-width="1" />
      <text x="86" y="222.0" text-anchor="end" font-size="12" fill="#445166">712.30</text>
    
      <line x1="96" y1="300.0" x2="890" y2="300.0" stroke="#d8dde6" stroke-width="1" />
      <text x="86" y="304.0" text-anchor="end" font-size="12" fill="#445166">224.89</text>
    
      <line x1="96" y1="382.0" x2="890" y2="382.0" stroke="#d8dde6" stroke-width="1" />
      <text x="86" y="386.0" text-anchor="end" font-size="12" fill="#445166">-262.53</text>
    
      <line x1="96" y1="464.0" x2="890" y2="464.0" stroke="#d8dde6" stroke-width="1" />
      <text x="86" y="468.0" text-anchor="end" font-size="12" fill="#445166">-749.95</text>
    
  <line x1="96" y1="337.8" x2="890" y2="337.8" stroke="#7a8799" stroke-width="1.4" stroke-dasharray="4 4" />
  <line x1="96" y1="54" x2="96" y2="464" stroke="#445166" stroke-width="1.2" />
  <line x1="96" y1="464" x2="890" y2="464" stroke="#445166" stroke-width="1.2" />
  
      <line x1="96.0" y1="464" x2="96.0" y2="470" stroke="#445166" stroke-width="1" />
      <text x="96.0" y="486" text-anchor="middle" font-size="12" fill="#445166">2026-03-05</text>
    
      <line x1="479.3" y1="464" x2="479.3" y2="470" stroke="#445166" stroke-width="1" />
      <text x="479.3" y="486" text-anchor="middle" font-size="12" fill="#445166">2026-03-25</text>
    
      <line x1="890.0" y1="464" x2="890.0" y2="470" stroke="#445166" stroke-width="1" />
      <text x="890.0" y="486" text-anchor="middle" font-size="12" fill="#445166">2026-04-21</text>
    
  <polyline fill="none" stroke="#0b84f3" stroke-width="2.2" points="96.0,350.7 123.4,350.9 150.8,349.1 178.1,364.9 205.5,366.6 232.9,370.8 260.3,390.0 287.7,391.3 315.0,376.5 342.4,419.2 369.8,443.7 397.2,457.1 424.6,463.9 451.9,464.0 479.3,448.4 506.7,461.1 534.1,438.5 561.4,376.7 588.8,374.2 616.2,320.8 643.6,321.8 671.0,320.3 698.3,303.9 725.7,305.9 753.1,316.6 780.5,311.0 807.9,316.1 835.2,325.4 862.6,353.1 890.0,367.6" /><circle cx="890.0" cy="367.6" r="3.5" fill="#0b84f3" /><polyline fill="none" stroke="#f39c12" stroke-width="2.2" points="96.0,357.0 123.4,325.0 150.8,356.0 178.1,376.4 205.5,382.0 232.9,371.8 260.3,400.0 287.7,391.7 315.0,365.5 342.4,362.7 369.8,371.0 397.2,351.4 424.6,360.5 451.9,357.6 479.3,286.3 506.7,279.8 534.1,254.2 561.4,260.0 588.8,223.1 616.2,138.3 643.6,145.8 671.0,147.6 698.3,105.8 725.7,89.7 753.1,54.0 780.5,82.6 807.9,69.4 835.2,103.5 862.6,117.2 890.0,86.2" /><circle cx="890.0" cy="86.2" r="3.5" fill="#f39c12" />
  
      <line x1="900" y1="70" x2="920" y2="70" stroke="#0b84f3" stroke-width="3" />
      <text x="928" y="74" font-size="12" fill="#18212f">IVL</text>
    
      <line x1="900" y1="92" x2="920" y2="92" stroke="#f39c12" stroke-width="3" />
      <text x="928" y="96" font-size="12" fill="#18212f">PTTGC</text>
    
</svg>
